# xmcd
#
# Track frame offsets: 
#        150
#        15780
#        29130
#        44743
#        62755
#        75400
#        93133
#        109113
#        127240
#        140990
#        157533
#        176730
#        192255
#
# Disc length: 2815 seconds
#
# Revision: 4
# Processed by: cddbd v1.4PL0 Copyright (c) Steve Scherf et al.
# Submitted via: ExactAudioCopy v0.90a11
#
DISCID=ab0afd0d
DTITLE=Mac Davis - Will Write Songs For Food
DYEAR=1900
DGENRE=
TTITLE0=Southern Cookin'
TTITLE1=In The Ghetto
TTITLE2=Fool Moon
TTITLE3=Everyone But Me And You (Duet With Dolly Parton)
TTITLE4=Same Old Song And Dance
TTITLE5=Texas In My Rear View Mirror
TTITLE6=Back From The Dead
TTITLE7=Plain Old Love
TTITLE8=Watchin' Scotty Grow
TTITLE9=It Only Hurts When I'm Awake
TTITLE10=If She Hadn't Broken My Heart
TTITLE11=Life Is Hard
TTITLE12=Brand New Lease On Life
EXTD=
EXTT0=
EXTT1=
EXTT2=
EXTT3=
EXTT4=
EXTT5=
EXTT6=
EXTT7=
EXTT8=
EXTT9=
EXTT10=
EXTT11=
EXTT12=
PLAYORDER=
